<svg xmlns="http://www.w3.org/2000/svg" version="1.1" xmlns:xlink="http://www.w3.org/1999/xlink" xmlns:svgjs="http://svgjs.dev/svgjs" width="1000" height="303" viewBox="0 0 1000 303"><g transform="matrix(1,0,0,1,-0.6060606060606233,0.13098129653823776)"><svg viewBox="0 0 396 120" data-background-color="#ffffff" preserveAspectRatio="xMidYMid meet" height="303" width="1000" xmlns="http://www.w3.org/2000/svg" xmlns:xlink="http://www.w3.org/1999/xlink"><g id="tight-bounds" transform="matrix(1,0,0,1,0.2400000000000091,-0.051873780807227376)"><svg viewBox="0 0 395.52 120.10374756161447" height="120.10374756161447" width="395.52"><g><svg viewBox="0 0 594.2111217605266 180.43836611607514" height="120.10374756161447" width="395.52"><g transform="matrix(1,0,0,1,198.69112176052658,24.93757447769201)"><svg viewBox="0 0 395.52 130.56321716069112" height="130.56321716069112" width="395.52"><g id="textblocktransform"><svg viewBox="0 0 395.52 130.56321716069112" height="130.56321716069112" width="395.52" id="textblock"><g><svg viewBox="0 0 395.52 77.30773210692728" height="77.30773210692728" width="395.52"><g transform="matrix(1,0,0,1,0,0)"><svg width="395.52" viewBox="-0.1 -33.5 173.94 34" height="77.30773210692728" data-palette-color="#1e245e"><g class="undefined-text-0" data-fill-palette-color="primary" id="text-0"><path d="M16.95-33.5L16.95-33.5Q21.7-33.5 25.48-32.33 29.25-31.15 32.15-28.8L32.15-28.8 27.45-21.3Q25.1-22.95 22.53-23.95 19.95-24.95 16.95-24.95L16.95-24.95Q15.65-24.95 14.88-24.75 14.1-24.55 13.78-24.2 13.45-23.85 13.45-23.4L13.45-23.4Q13.45-22.8 14.38-22.5 15.3-22.2 16.7-21.85L16.7-21.85 21.25-20.8Q26.3-19.65 28.88-17.4 31.45-15.15 31.45-11.15L31.45-11.15Q31.45-7.15 29.5-4.58 27.55-2 24.23-0.75 20.9 0.5 16.7 0.5L16.7 0.5Q13.55 0.5 10.4-0.08 7.25-0.65 4.55-1.78 1.85-2.9-0.1-4.5L-0.1-4.5 4.5-12.15Q5.95-11 8-10.08 10.05-9.15 12.25-8.6 14.45-8.05 16.35-8.05L16.35-8.05Q17.55-8.05 18.25-8.25 18.95-8.45 19.23-8.78 19.5-9.1 19.5-9.55L19.5-9.55Q19.5-10.25 18.93-10.6 18.35-10.95 16.85-11.3L16.85-11.3 11.85-12.4Q9.2-13 6.8-14 4.4-15 2.9-16.93 1.4-18.85 1.4-22.15L1.4-22.15Q1.4-25.55 3.23-28.1 5.05-30.65 8.53-32.08 12-33.5 16.95-33.5ZM54.5-33L66.15-33 66.15-14.2Q66.15-6.8 62.17-3.15 58.2 0.5 50.2 0.5L50.2 0.5Q42.2 0.5 38.22-3.15 34.25-6.8 34.25-14.2L34.25-14.2 34.25-33 45.95-33 45.95-13.3Q45.95-10.8 47.05-9.53 48.15-8.25 50.2-8.25L50.2-8.25Q52.3-8.25 53.4-9.53 54.5-10.8 54.5-13.3L54.5-13.3 54.5-33ZM70.5-33L88.4-33Q94.84-33 98.3-30.13 101.75-27.25 101.75-22.5L101.75-22.5Q101.75-17.05 98.37-14.3 95-11.55 88.55-11.55L88.55-11.55 87.4-10.95 81.9-10.95 81.9 0 70.5 0 70.5-33ZM81.9-18.6L86.4-18.6Q88.25-18.6 89.17-19.28 90.09-19.95 90.09-21.65L90.09-21.65Q90.09-23.3 89.17-24 88.25-24.7 86.4-24.7L86.4-24.7 81.9-24.7 81.9-18.6ZM83.25-14.45L93.3-16.15 103.59 0 90.95 0 83.25-14.45ZM126.99-33L138.44-33 126.89-11.45 126.89 0 115.24 0 115.24-11.45 103.69-33 115.29-33 118.79-25.45 121.14-19.45 123.49-25.45 126.99-33ZM149.99 0L138.39 0 149.09-33 163.09-33 173.84 0 161.94 0 157.44-18.95 156.09-24.55 155.94-24.55 154.64-18.95 149.99 0ZM165.59-6.3L146.74-6.3 146.74-13.55 165.59-13.55 165.59-6.3Z" fill="#1e245e" data-fill-palette-color="primary"></path></g></svg></g></svg></g><g transform="matrix(1,0,0,1,75.54432,95.55823227180224)"><svg viewBox="0 0 244.43135999999998 35.00498488888888" height="35.00498488888888" width="244.43135999999998"><g transform="matrix(1,0,0,1,0,0)"><svg width="244.43135999999998" viewBox="2.75 -35 323.97 46.4" height="35.00498488888888" data-palette-color="#170202"><path d="M28.8-4.5L28.8-4.5Q32.6-8.3 33.05-16.4L33.05-16.4 34.05-35 38.55-35 37.55-16.2Q37.2-9.6 35.23-5.7 33.25-1.8 28.7 1L28.7 1Q24.7-1.85 23.15-6.03 21.6-10.2 20.75-17.35L20.75-17.35 20.55-17.35Q20.15-9.9 18.63-6.25 17.1-2.6 12.6 1L12.6 1Q8.05-1.8 6.08-5.7 4.1-9.6 3.75-16.2L3.75-16.2 2.75-35 7.25-35 8.25-16.4Q8.7-8.3 12.5-4.5L12.5-4.5Q14.95-6.6 16.15-10.78 17.35-14.95 18.4-24L18.4-24 22.9-24Q24.3-16.2 25.45-11.9 26.6-7.6 27.23-6.45 27.85-5.3 28.8-4.5ZM56.05-24.5L56.05-24.5Q64.55-24.15 64.55-17.45L64.55-17.45Q64.55-9.1 53.6-9.1L53.6-9.1 51.55-9.1 51.55-12.95 53.95-12.95Q57.3-12.95 58.6-13.98 59.9-15 59.9-17.4L59.9-17.4Q59.9-18.95 58.75-19.73 57.6-20.5 55.8-20.5L55.8-20.5Q52.25-20.5 50.22-18 48.2-15.5 48.2-12L48.2-12Q48.2-8.3 50.37-6 52.55-3.7 56.05-3.7L56.05-3.7Q59.2-3.7 61.2-5.25L61.2-5.25 64.2-2.3Q60.75 0.5 56.05 0.5L56.05 0.5Q50.35 0.5 46.95-2.85 43.55-6.2 43.55-11.5L43.55-11.5Q43.55-17.4 46.9-21.05 50.25-24.7 56.05-24.5ZM69.55-12L69.55-35 74.05-35 74.05-12Q74.05-8.05 76.07-5.88 78.1-3.7 81.65-3.7L81.65-3.7Q85.35-3.7 87.45-5.83 89.55-7.95 89.55-12L89.55-12Q89.55-15.85 87.27-18.07 85-20.3 81.3-20.3L81.3-20.3Q78.15-20.3 75.85-18.5L75.85-18.5 75.85-23Q78.6-24.5 81.8-24.5L81.8-24.5Q87.1-24.5 90.57-21.08 94.05-17.65 94.05-12L94.05-12Q94.05-6.05 90.42-2.78 86.8 0.5 81.3 0.5L81.3 0.5Q76.05 0.5 72.8-2.9 69.55-6.3 69.55-12L69.55-12ZM135.49-17.5L135.49-17.5Q135.44-9.15 130.87-4.58 126.29 0 118.24 0L118.24 0 111.44 0 111.44-35 118.24-35Q126.29-35 130.87-30.43 135.44-25.85 135.49-17.5ZM116.14-4.4L118.84-4.4Q124.39-4.4 127.37-8.08 130.34-11.75 130.44-17.5L130.44-17.5Q130.34-23.25 127.37-26.93 124.39-30.6 118.84-30.6L118.84-30.6 116.14-30.6 116.14-4.4ZM153.24-24.5L153.24-24.5Q161.74-24.15 161.74-17.45L161.74-17.45Q161.74-9.1 150.79-9.1L150.79-9.1 148.74-9.1 148.74-12.95 151.14-12.95Q154.49-12.95 155.79-13.98 157.09-15 157.09-17.4L157.09-17.4Q157.09-18.95 155.94-19.73 154.79-20.5 152.99-20.5L152.99-20.5Q149.44-20.5 147.41-18 145.39-15.5 145.39-12L145.39-12Q145.39-8.3 147.56-6 149.74-3.7 153.24-3.7L153.24-3.7Q156.39-3.7 158.39-5.25L158.39-5.25 161.39-2.3Q157.94 0.5 153.24 0.5L153.24 0.5Q147.54 0.5 144.14-2.85 140.74-6.2 140.74-11.5L140.74-11.5Q140.74-17.4 144.09-21.05 147.44-24.7 153.24-24.5ZM175.34 0.55L175.34 0.55Q171.04-3.5 169.01-8.4 166.99-13.3 164.99-24L164.99-24 169.59-24Q171.54-11.95 175.34-5.75L175.34-5.75Q179.14-11.95 181.09-24L181.09-24 185.69-24Q183.69-13.3 181.66-8.4 179.64-3.5 175.34 0.55ZM201.68-24.5L201.68-24.5Q210.18-24.15 210.18-17.45L210.18-17.45Q210.18-9.1 199.23-9.1L199.23-9.1 197.18-9.1 197.18-12.95 199.58-12.95Q202.93-12.95 204.23-13.98 205.53-15 205.53-17.4L205.53-17.4Q205.53-18.95 204.38-19.73 203.23-20.5 201.43-20.5L201.43-20.5Q197.88-20.5 195.86-18 193.83-15.5 193.83-12L193.83-12Q193.83-8.3 196.01-6 198.18-3.7 201.68-3.7L201.68-3.7Q204.83-3.7 206.83-5.25L206.83-5.25 209.83-2.3Q206.38 0.5 201.68 0.5L201.68 0.5Q195.98 0.5 192.58-2.85 189.18-6.2 189.18-11.5L189.18-11.5Q189.18-17.4 192.53-21.05 195.88-24.7 201.68-24.5ZM215.18-9.5L215.18-9.5 215.18-35 219.68-35 219.68-9.5Q219.68-7.7 220.11-6.58 220.53-5.45 221.43-4.98 222.33-4.5 223.18-4.35 224.03-4.2 225.43-4.2L225.43-4.2 225.43 0Q219.83 0 217.51-2.15 215.18-4.3 215.18-9.5ZM231.43-20.85L231.43-20.85Q234.93-24.5 240.18-24.5L240.18-24.5Q242.73-24.5 244.95-23.53 247.18-22.55 248.85-20.85 250.53-19.15 251.48-16.88 252.43-14.6 252.43-12L252.43-12Q252.43-9.4 251.5-7.13 250.58-4.85 248.93-3.15 247.28-1.45 245.03-0.48 242.78 0.5 240.18 0.5L240.18 0.5Q237.53 0.5 235.3-0.48 233.08-1.45 231.43-3.15 229.78-4.85 228.85-7.13 227.93-9.4 227.93-12L227.93-12Q227.93-17.3 231.43-20.85ZM240.18-20.3L240.18-20.3Q236.68-20.3 234.55-18 232.43-15.7 232.43-12 232.43-8.3 234.55-6 236.68-3.7 240.18-3.7L240.18-3.7Q243.73-3.7 245.83-6.03 247.93-8.35 247.93-12 247.93-15.65 245.83-17.98 243.73-20.3 240.18-20.3ZM262.18 11.4L257.68 11.4 257.68-12Q257.68-14.6 258.63-16.9 259.58-19.2 261.23-20.88 262.88-22.55 265.13-23.53 267.38-24.5 269.93-24.5L269.93-24.5Q272.48-24.5 274.7-23.53 276.93-22.55 278.6-20.85 280.28-19.15 281.23-16.88 282.18-14.6 282.18-12L282.18-12Q282.18-9.4 281.25-7.13 280.33-4.85 278.68-3.15 277.03-1.45 274.78-0.48 272.53 0.5 269.93 0.5L269.93 0.5Q266.73 0.5 263.98-1L263.98-1 263.98-5.5Q266.43-3.7 269.78-3.7L269.78-3.7Q271.58-3.7 273.05-4.33 274.53-4.95 275.55-6.05 276.58-7.15 277.13-8.68 277.68-10.2 277.68-12L277.68-12Q277.68-13.8 277.13-15.33 276.58-16.85 275.58-17.95 274.58-19.05 273.15-19.68 271.73-20.3 269.93-20.3L269.93-20.3Q268.18-20.3 266.75-19.7 265.33-19.1 264.3-18 263.28-16.9 262.73-15.38 262.18-13.85 262.18-12L262.18-12 262.18 11.4ZM299.17-24.5L299.17-24.5Q307.67-24.15 307.67-17.45L307.67-17.45Q307.67-9.1 296.72-9.1L296.72-9.1 294.67-9.1 294.67-12.95 297.07-12.95Q300.42-12.95 301.72-13.98 303.02-15 303.02-17.4L303.02-17.4Q303.02-18.95 301.87-19.73 300.72-20.5 298.92-20.5L298.92-20.5Q295.37-20.5 293.35-18 291.32-15.5 291.32-12L291.32-12Q291.32-8.3 293.5-6 295.67-3.7 299.17-3.7L299.17-3.7Q302.32-3.7 304.32-5.25L304.32-5.25 307.32-2.3Q303.87 0.5 299.17 0.5L299.17 0.5Q293.47 0.5 290.07-2.85 286.67-6.2 286.67-11.5L286.67-11.5Q286.67-17.4 290.02-21.05 293.37-24.7 299.17-24.5ZM316.32 0L311.92 0 311.92-13.65Q311.92-19.4 314.07-21.6L314.07-21.6Q315.12-22.7 316.62-23.25 318.12-23.8 319.25-23.9 320.37-24 322.32-24L322.32-24 326.72-24 326.72-19.8 321.42-19.8Q320.42-19.8 319.87-19.75 319.32-19.7 318.57-19.4 317.82-19.1 317.27-18.45L317.27-18.45Q316.32-17.25 316.32-13.65L316.32-13.65 316.32 0Z" opacity="1" transform="matrix(1,0,0,1,0,0)" fill="#170202" class="undefined-text-1" data-fill-palette-color="secondary" id="text-1"></path></svg></g></svg></g></svg></g></svg></g><g><svg viewBox="0 0 180.4406215956516 180.43836611607514" height="180.43836611607514" width="180.4406215956516"><g><svg xmlns="http://www.w3.org/2000/svg" xmlns:xlink="http://www.w3.org/1999/xlink" version="1.0" x="0" y="0" viewBox="10 10 80.001 80" enable-background="new 0 0 100 100" xml:space="preserve" height="180.43836611607514" width="180.4406215956516" class="icon-icon-0" data-fill-palette-color="accent" id="icon-0"><path fill="none" stroke="#1E0707" stroke-linecap="round" stroke-linejoin="round" stroke-miterlimit="10" d="M25 69.998L22.499 90 25 69.998z"></path><path fill="none" stroke="#1E0707" stroke-linecap="round" stroke-linejoin="round" stroke-miterlimit="10" d="M47.5 49.169c-1.557 0.927-3.238 1.454-4.999 1.454-2.249 0-4.371-0.833-6.26-2.294v0.548c0 1.844-0.744 3.514-1.953 4.717-0.616 0.615-1.351 1.109-2.167 1.445l-18.755 7.773C11.285 64.893 10 67.762 10 70.936V90h37.5V49.169z"></path><path fill="none" stroke="#1E0707" stroke-linecap="round" stroke-linejoin="round" stroke-miterlimit="10" d="M47.5 10.912C45.943 10.327 44.262 10 42.501 10c-7.262 0-13.239 5.446-14.104 12.478v4.059c-1.84 0.654-3.163 2.391-3.163 4.454 0 4.038 2.05 7.311 4.606 7.424 2.35 7.242 7.131 12.209 12.66 12.209 1.761 0 3.442-0.506 4.999-1.429V10.912z"></path><path fill="none" stroke="#1E0707" stroke-linecap="round" stroke-linejoin="round" stroke-miterlimit="10" d="M77.272 53.51l-2.653-2.652L77.272 53.51z"></path><circle fill="none" stroke="#1E0707" stroke-linecap="round" stroke-linejoin="round" stroke-miterlimit="10" cx="77.499" cy="77.498" r="5.7"></circle><path fill="none" stroke="#1E0707" stroke-linecap="round" stroke-linejoin="round" stroke-miterlimit="10" d="M81.088 86.158c1.466-0.605 3.117-0.002 3.891 1.338 0.956-0.717 1.802-1.564 2.517-2.52-1.34-0.771-1.942-2.424-1.335-3.893 0.608-1.467 2.203-2.207 3.695-1.805 0.084-0.582 0.143-1.174 0.143-1.781 0-0.605-0.059-1.195-0.143-1.777-1.492 0.402-3.089-0.344-3.695-1.809-0.607-1.469-0.005-3.121 1.335-3.891-0.715-0.957-1.562-1.805-2.517-2.521-0.773 1.344-2.427 1.947-3.893 1.34-1.468-0.609-2.212-2.203-1.807-3.699C78.695 65.059 78.104 65 77.5 65c-0.608 0-1.197 0.059-1.781 0.141 0.403 1.496-0.341 3.09-1.807 3.699-1.468 0.607-3.12 0.004-3.89-1.336-0.956 0.717-1.802 1.561-2.519 2.518 1.342 0.77 1.944 2.426 1.337 3.891-0.608 1.467-2.203 2.211-3.698 1.809-0.085 0.582-0.142 1.172-0.142 1.777 0 0.607 0.057 1.199 0.142 1.781 1.495-0.402 3.09 0.342 3.698 1.809 0.607 1.467 0.005 3.121-1.337 3.893 0.717 0.955 1.563 1.799 2.519 2.516 0.77-1.34 2.423-1.943 3.89-1.338 1.466 0.611 2.21 2.205 1.807 3.701C76.303 89.941 76.892 90 77.5 90c0.606 0 1.197-0.059 1.779-0.141C78.876 88.363 79.622 86.77 81.088 86.158z"></path><path fill="none" stroke="#1E0707" stroke-linecap="round" stroke-linejoin="round" stroke-miterlimit="10" d="M86.59 36.65v-3.304V36.65z"></path><path fill="none" stroke="#1E0707" stroke-linecap="round" stroke-linejoin="round" stroke-miterlimit="10" d="M78.777 10.357c-0.475-0.475-1.25-0.475-1.728 0.004l0 0L58.892 28.513 55.003 35l6.482-3.889 18.159-18.159 0 0c0.477-0.476 0.476-1.251 0-1.727L78.777 10.357z"></path><path fill="none" stroke="#1E0707" stroke-linecap="round" stroke-linejoin="round" stroke-miterlimit="10" d="M75.32 12.086l2.595 2.595L75.32 12.086z"></path><path fill="none" stroke="#1E0707" stroke-linecap="round" stroke-linejoin="round" stroke-miterlimit="10" d="M73.591 13.816l2.595 2.595L73.591 13.816z"></path><path fill="none" stroke="#1E0707" stroke-linecap="round" stroke-linejoin="round" stroke-miterlimit="10" d="M58.892 28.516l2.594 2.595L58.892 28.516z"></path><path fill="none" stroke="#1E0707" stroke-linecap="round" stroke-linejoin="round" stroke-miterlimit="10" d="M83.902 56.6L71.527 44.229c-1.464-1.464-3.839-1.464-5.304 0l0 0L47.5 62.953v15.578l7.234 7.238c1.465 1.465 3.838 1.469 5.303 0l6.528-6.527c-0.462-0.094-0.946-0.094-1.423 0.037-0.085-0.582-0.142-1.174-0.142-1.781 0-0.605 0.057-1.195 0.142-1.777 1.495 0.402 3.09-0.342 3.698-1.809 0.607-1.465 0.005-3.121-1.337-3.891 0.717-0.957 1.563-1.801 2.519-2.518 0.77 1.34 2.422 1.943 3.89 1.336 1.466-0.609 2.21-2.203 1.807-3.699C76.303 65.059 76.892 65 77.5 65c0.604 0 1.195 0.059 1.779 0.141-0.13 0.479-0.13 0.965-0.038 1.426l4.659-4.66h0.002C85.366 60.441 85.366 58.064 83.902 56.6z"></path><path fill="none" stroke="#1E0707" stroke-linecap="round" stroke-linejoin="round" stroke-miterlimit="10" d="M65.34 45.115L47.5 62.953v6.748l14.304 14.305 4.765-4.764c-0.463-0.094-0.949-0.094-1.426 0.037-0.085-0.582-0.142-1.174-0.142-1.781 0-0.605 0.057-1.195 0.142-1.777 1.495 0.402 3.09-0.342 3.698-1.809 0.607-1.465 0.005-3.121-1.337-3.891 0.717-0.957 1.563-1.801 2.519-2.518 0.77 1.34 2.422 1.943 3.89 1.336 1.466-0.609 2.21-2.203 1.807-3.699C76.303 65.059 76.892 65 77.5 65c0.604 0 1.195 0.059 1.779 0.141-0.13 0.479-0.13 0.965-0.038 1.43l3.777-3.779L65.34 45.115z"></path><path fill="none" stroke="#1E0707" stroke-linecap="round" stroke-linejoin="round" stroke-miterlimit="10" d="M86.692 16.817H75.779L61.485 31.111 55.003 35l3.889-6.486 11.697-11.696H47.5v36.367h9.771l8.953-8.955 0 0c1.465-1.464 3.84-1.464 5.304 0l8.954 8.955h6.211c1.826 0 3.308-1.482 3.308-3.308V20.125C90 18.298 88.519 16.817 86.692 16.817z"></path><path fill="none" stroke="#1E0707" stroke-linecap="round" stroke-linejoin="round" stroke-miterlimit="10" d="M73.505 19.09l-12.02 12.021L55.003 35l3.889-6.486 9.425-9.423H47.5v31.82h12.044l6.68-6.681 0 0c1.465-1.464 3.84-1.464 5.304 0l6.681 6.681h4.973V19.09H73.505z"></path></svg></g></svg></g></svg></g><defs></defs></svg><rect width="395.52" height="120.10374756161447" fill="none" stroke="none" visibility="hidden"></rect></g></svg></g></svg>